<svg xmlns:dc="http://purl.org/dc/elements/1.1/" xmlns:cc="http://creativecommons.org/ns#" xmlns:rdf="http://www.w3.org/1999/02/22-rdf-syntax-ns#" xmlns:svg="http://www.w3.org/2000/svg" xmlns="http://www.w3.org/2000/svg" viewBox="0 0 793.70001 563.97198" height="563.97198" width="793.70001" xml:space="preserve" id="svg2"> <metadata id="metadata8"></metadata> <defs id="defs6"> <clipPath id="clipPath18" clipPathUnits="userSpaceOnUse"> <path id="path16" d="M 0,422.979 H 595.275 V 0 H 0 Z"></path> </clipPath> </defs> <g transform="matrix(1.3333333,0,0,-1.3333333,0,563.972)" id="g10"> <g id="g12"> <g clip-path="url(#clipPath18)" id="g14"> <g transform="translate(527.9805,324.9506)" id="g20"> <path id="path22" style="fill:#0093d1;fill-opacity:1;fill-rule:nonzero;stroke:none" d="m 0,0 c -52.99,53 -139.533,84.628 -231.505,84.628 -74.907,0 -145.481,-20.372 -198.728,-57.381 -54.632,-37.961 -84.716,-88.857 -84.716,-143.357 0,-41.984 17.952,-82.127 51.928,-116.116 52.993,-52.995 139.531,-84.627 231.516,-84.627 91.972,0 178.515,31.632 231.505,84.627 33.974,33.989 51.945,74.132 51.945,116.116 C 51.945,-74.128 33.974,-33.988 0,0 m -435.915,-229.279 c -2.866,2.561 -5.665,5.16 -8.336,7.836 -14.355,14.357 -25.621,29.874 -33.641,46.191 -7.397,18.146 -11.196,37.14 -11.196,56.541 0,37.739 14.356,73.807 41.163,104.927 9.41,9.175 19.938,17.629 31.415,25.337 -36.866,-74.698 -12.385,-64.672 34.152,-171.687 8.645,-19.911 36.081,-61.385 -30.866,-82.79 -5.23,3.669 -17.902,9.653 -22.691,13.645 m 116.388,-55.888 c -17.737,4.29 -34.737,9.873 -50.724,16.643 28.527,17.869 45.371,38.843 47.153,61.084 0.709,8.82 -0.5,18.443 -3.719,27.559 -3.041,8.689 -7.993,16.85 -11.809,25.586 -16.929,38.901 -42.848,77.391 -48.653,106.766 -0.767,9.377 -0.908,15.26 1.258,22.884 8.391,29.312 66.638,53.949 66.638,53.949 z m 24.181,-5.562 0.323,335.649 c -12.406,-4.155 -24.305,-9.011 -35.663,-14.503 l -0.65,-0.3 c -25.127,-12.173 -53.704,-32.034 -60.887,-51.138 -3.516,-9.34 -3.019,-17.064 -0.874,-28.336 3.402,-19.861 31.769,-75.9 47.371,-107.234 l 9.398,-19.025 c 0,0 0.05,-0.097 0.025,-0.055 l 0.033,-0.097 c 7.11,-15.623 7.92,-30.669 2.401,-44.723 -8.406,-21.42 -29.581,-35.921 -46.877,-44.948 -4.898,2.219 -9.699,4.554 -14.392,7.006 16.149,7.51 41.34,21.653 49.534,42.536 4.269,10.907 3.585,22.316 -2.102,34.867 l -8.114,19.542 c -8.659,17.398 -19.564,38.593 -28.666,58.773 -8.697,19.303 -16.938,36.974 -18.741,47.533 -3.032,15.881 -4.458,35.595 8.379,54.398 14.799,21.653 47.585,42.413 103.218,59.88 3.166,0.474 6.449,0.913 9.632,1.305 l 0.202,-352.955 c -4.225,0.53 -9.382,1.15 -13.55,1.825 M -273.9,61.019 c 13.746,1.518 28.233,2.315 42.395,2.315 42.74,0 84.124,-7.102 121.032,-20.135 l -163.453,-152.532 z m 42.395,-356.577 c -14.62,0 -28.108,0.864 -42.275,2.481 l -0.12,178.17 128.354,-170.854 c -26.948,-6.335 -55.866,-9.797 -85.959,-9.797 m 111.136,17.09 -125.61,161.841 164.127,147.585 c 3.397,-1.607 6.987,-4.305 10.35,-6.384 l -157.322,-142.389 122.611,-155.231 c -4.136,-1.501 -9.91,-4.071 -14.156,-5.422 m 18.801,10.201 -118.988,149.724 145.85,131.547 0.306,-232.121 c -1.092,-24.216 -3.783,-30.901 -27.168,-49.15 m 55.746,25.758 c -12.852,-9.428 -22.824,-14.868 -36.617,-21.345 10.727,7.319 24.607,18.043 32.559,33.265 v 243.97 c 4.453,-2.826 9.485,-5.925 13.343,-10.576 l 0.038,-236.734 c -1.959,-1.654 -6.616,-5.87 -9.323,-8.58 m 14.651,12.11 -0.233,230.211 c 6.747,-5.272 16.409,-14.183 21.598,-19.253 25.863,-28.776 35.959,-63.452 35.959,-94.481 0,-44.43 -20.699,-84.519 -57.324,-116.477"></path> </g> </g> </g> </g> </svg>